<svg width="42" height="42" viewBox="0 0 42 42" fill="none" xmlns="http://www.w3.org/2000/svg">
<path d="M26.7891 0C25.0342 0 23.6069 1.42722 23.6069 3.18212C23.6069 4.93702 25.0342 6.36425 26.7891 6.36425C28.544 6.36425 29.9712 4.93702 29.9712 3.18212C29.9712 1.42722 28.544 0 26.7891 0Z" fill="#9F9181"/>
<path d="M15.1284 0C13.3735 0 11.9463 1.42722 11.9463 3.18212C11.9463 4.93702 13.3735 6.36425 15.1284 6.36425C16.8833 6.36425 18.3105 4.93702 18.3105 3.18212C18.3105 1.42722 16.8833 0 15.1284 0Z" fill="#9F9181"/>
<path d="M26.7891 35.5498C25.0342 35.5498 23.6069 36.977 23.6069 38.7319C23.6069 40.4868 25.0342 41.9141 26.7891 41.9141C28.544 41.9141 29.9712 40.4868 29.9712 38.7319C29.9712 36.977 28.544 35.5498 26.7891 35.5498Z" fill="#9F9181"/>
<path d="M15.1284 35.5498C13.3735 35.5498 11.9463 36.977 11.9463 38.7319C11.9463 40.4868 13.3735 41.9141 15.1284 41.9141C16.8833 41.9141 18.3105 40.4868 18.3105 38.7319C18.3105 36.977 16.8833 35.5498 15.1284 35.5498Z" fill="#9F9181"/>
<path d="M38.7314 23.6074C36.9765 23.6074 35.5493 25.0346 35.5493 26.7895C35.5493 28.5444 36.9765 29.9717 38.7314 29.9717C40.4863 29.9717 41.9136 28.5444 41.9136 26.7895C41.9136 25.0346 40.4863 23.6074 38.7314 23.6074Z" fill="#9F9181"/>
<path d="M38.7314 18.3105C40.4863 18.3105 41.9136 16.8833 41.9136 15.1284C41.9136 13.3735 40.4863 11.9463 38.7314 11.9463C36.9765 11.9463 35.5493 13.3735 35.5493 15.1284C35.5493 16.8833 36.9765 18.3105 38.7314 18.3105Z" fill="#9F9181"/>
<path d="M3.18212 29.9717C4.93956 29.9717 6.36425 28.547 6.36425 26.7895C6.36425 25.0321 4.93956 23.6074 3.18212 23.6074C1.42468 23.6074 0 25.0321 0 26.7895C0 28.547 1.42468 29.9717 3.18212 29.9717Z" fill="#9F9181"/>
<path d="M3.18212 18.3105C4.93956 18.3105 6.36425 16.8858 6.36425 15.1284C6.36425 13.371 4.93956 11.9463 3.18212 11.9463C1.42468 11.9463 0 13.371 0 15.1284C0 16.8858 1.42468 18.3105 3.18212 18.3105Z" fill="#9F9181"/>
</svg>
